{"title":"Arthur Christmas 2011 DVDScr XVID AC3 HQ Hive-CM8","uid":6977827,"size":1575981260,"categoryP":"video","categoryS":"movies","magnet":"?xt=urn:btih:75eec310692a85b4cf24fc84ccc215fa85c5a6a4&amp;dn=Arthur+Christmas+2011+DVDScr+XVID+AC3+HQ+Hive-CM8&amp;tr=udp%3A%2F%2Ftracker.openbittorrent.com%3A80&amp;tr=udp%3A%2F%2Fopen.demonii.com%3A1337&amp;tr=udp%3A%2F%2Ftracker.coppersurfer.tk%3A6969&amp;tr=udp%3A%2F%2Fexodus.desync.com%3A6969","seeders":1,"leechers":0,"uploader":"neon","files":-1,"time":1327309240,"description":"CM8 Doing it right the first time :D\n\n\nSource: DVDSCR DVD-R JKR\nthx\n\nEncode:\nDVD was very nice, just the usual annoying watermarks inside, also\na bit dark in some spots and brightness, constrast not that great.\n\nI removed those watermarks in transitions spots so you wont see anything from them\nagain, fixed brightness, contrast when needed and added sharpness, rgb and denoise.\nSince it came along with 5.1 audio it does look like a dvdrip now, no need for a\nfurther dvdrip later on.\ngot very nice\nenjoy\n\nVideo: 720x384 @bitrate 1700 2pass\nAudio: English AC3 5.1 @448\nSample: Yes, included[/b]\n  &lt;a href=&quot;\nhttp://www.imdb.com/title/tt1430607/&quot; rel=&quot;nofollow&quot; target=&quot;_NEW&quot;&gt;\nhttp://www.imdb.com/title/tt1430607/&lt;/a&gt;\n\n\nGeneral\nComplete name                  : Arthur.Christmas.2011.DVDScr.XVID.AC3.HQ.Hive-CM8.avi\nFormat                         : AVI\nFormat/Info                    : Audio Video Interleave\nFile size                      : 1.45 GiB\nDuration                       : 1h 37mn\nOverall bit rate               : 2 131 Kbps\nWriting application            : Nandub v1.0rc2\nWriting library                : Nandub build 1853/release\n\nVideo\nID                             : 0\nFormat                         : MPEG-4 Visual\nFormat profile                 : Advanced Simple@L5\nFormat settings, BVOP          : 2\nFormat settings, QPel          : Yes\nFormat settings, GMC           : No warppoints\nFormat settings, Matrix        : Default (H.263)\nMuxing mode                    : Packed bitstream\nCodec ID                       : XVID\nCodec ID/Hint                  : XviD\nDuration                       : 1h 37mn\nBit rate                       : 1 674 Kbps\nWidth                          : 720 pixels\nHeight                         : 384 pixels\nDisplay aspect ratio           : 1.875\nFrame rate                     : 23.976 fps\nColor space                    : YUV\nChroma subsampling             : 4:2:0\nBit depth                      : 8 bits\nScan type                      : Progressive\nCompression mode               : Lossy\nBits/(Pixel*Frame)             : 0.253\nStream size                    : 1.14 GiB (79%)\nWriting library                : XviD 1.2.1 (UTC 2008-12-04)\n\nAudio\nID                             : 1\nFormat                         : AC-3\nFormat/Info                    : Audio Coding 3\nMode extension                 : CM (complete main)\nCodec ID                       : 2000\nDuration                       : 1h 37mn\nBit rate mode                  : Constant\nBit rate                       : 448 Kbps\nChannel(s)                     : 6 channels\nChannel positions              : Front: L C R, Side: L R, LFE\nSampling rate                  : 48.0 KHz\nBit depth                      : 16 bits\nCompression mode               : Lossy\nDelay relative to video        : 78ms\nStream size                    : 312 MiB (21%)\nAlignment                      : Split accross interleaves\nInterleave, duration           : 42 ms (1.00 video frame)\nInterleave, preload duration   : 500 ms\n\n\nPlot:\nOn Christmas night at the North Pole, Santa's youngest son looks to\nuse his father's high-tech operation for an urgent mission.\n\n\nCast:\nJames McAvoy     ...    Arthur (voice)\nHugh Laurie      ...    Steve (voice)\nBill Nighy       ...    Grandsanta (voice)\nJim Broadbent    ...    Santa (voice)\n &lt;a href=&quot;\nhttp://www.aedes.us/d/meOif.png&quot; rel=&quot;nofollow&quot; target=&quot;_NEW&quot;&gt;\nhttp://www.aedes.us/d/meOif.png&lt;/a&gt; &lt;a href=&quot;\nhttp://www.aedes.us/d/2GuM.png&quot; rel=&quot;nofollow&quot; target=&quot;_NEW&quot;&gt;\nhttp://www.aedes.us/d/2GuM.png&lt;/a&gt; &lt;a href=&quot;\nhttp://www.aedes.us/d/yi0gb.png&quot; rel=&quot;nofollow&quot; target=&quot;_NEW&quot;&gt;\nhttp://www.aedes.us/d/yi0gb.png&lt;/a&gt;","torrent":{"xt":"urn:btih:75eec310692a85b4cf24fc84ccc215fa85c5a6a4","amp;dn":"Arthur+Christmas+2011+DVDScr+XVID+AC3+HQ+Hive-CM8","amp;tr":["udp%3A%2F%2Ftracker.openbittorrent.com%3A80","udp%3A%2F%2Fopen.demonii.com%3A1337","udp%3A%2F%2Ftracker.coppersurfer.tk%3A6969","udp%3A%2F%2Fexodus.desync.com%3A6969"],"infoHash":"75eec310692a85b4cf24fc84ccc215fa85c5a6a4","infoHashBuffer":{"type":"Buffer","data":[117,238,195,16,105,42,133,180,207,36,252,132,204,194,21,250,133,197,166,164]},"announce":[],"urlList":[]}}